<svg width="26" height="26" viewBox="0 0 26 26" fill="none" xmlns="http://www.w3.org/2000/svg">
<g clip-path="url(#clip0)">
<path d="M5.70476 10.5788C6.21163 9.04523 7.18986 7.71096 8.49989 6.76628C9.80991 5.8216 11.3848 5.31477 12.9999 5.31808C14.8308 5.31808 16.4861 5.96808 17.7861 7.03192L21.5691 3.25C19.2638 1.24042 16.3095 0 12.9999 0C7.87576 0 3.46443 2.92283 1.34326 7.20417L5.70476 10.5788Z" fill="#EA4335"/>
<path d="M17.3767 19.5141C16.1958 20.2756 14.6965 20.6819 13 20.6819C11.3913 20.6852 9.82237 20.1824 8.51526 19.2447C7.20815 18.307 6.22911 16.9819 5.71675 15.457L1.34009 18.7796C2.41394 20.953 4.07579 22.7818 6.1369 24.0581C8.198 25.3345 10.5757 26.0072 13 26C16.1774 26 19.2129 24.8701 21.4868 22.75L17.3778 19.5141H17.3767Z" fill="#34A853"/>
<path d="M21.4868 22.75C23.8647 20.5313 25.4085 17.2293 25.4085 13C25.4085 12.2308 25.2904 11.4043 25.1138 10.6362H13V15.6596H19.9723C19.6289 17.3485 18.7048 18.6561 17.3778 19.5141L21.4868 22.75Z" fill="#4A90E2"/>
<path d="M5.71688 15.457C5.45184 14.665 5.3172 13.8352 5.31821 13C5.31821 12.1529 5.45363 11.3393 5.70496 10.5788L1.34346 7.20419C0.451202 9.00544 -0.00875327 10.9899 0.000126159 13C0.000126159 15.08 0.48221 17.0409 1.34021 18.7796L5.71688 15.457Z" fill="#FBBC05"/>
</g>
<defs>
<clipPath id="clip0">
<rect width="26" height="26" fill="white"/>
</clipPath>
</defs>
</svg>
